<svg id="Layer_1" data-name="Layer 1" xmlns="http://www.w3.org/2000/svg" viewBox="0 0 617 583"><defs><style>.cls-1{fill:#f2a900;}</style></defs><title>WBHS Logo_Fideliter_RGB</title><path d="M521.76,342.5,504.1,349s-1.85-22-14.73-35.38c.14,19.75-8.67,40.09-20.09,56.51l-11.23-8.57C452.23,376.94,441.4,393,427,406.45L407.14,386.6a127.51,127.51,0,0,1-197.28,0L190,406.45C175.6,393,164.77,376.94,159,361.57l-11.23,8.57c-11.42-16.42-20.23-36.76-20.09-56.51C114.75,327,112.9,349,112.9,349L95.24,342.5c6.66,32.36,18.63,57.64,39.88,80.3h0l6.27-8.37c16.86,26.65,43.11,48.07,74.9,64.63h0L223,463.92a166.56,166.56,0,0,0,171,0l6.71,15.14h0c31.79-16.56,58-38,74.9-64.63l6.27,8.37h0C503.13,400.14,515.1,374.86,521.76,342.5Z"/><path class="cls-1" d="M460.63,371.39a135,135,0,0,1-29.24,39.46l10.23,10.23s-8.57,20.22-27.56,43.26c34-20.93,56.79-46.63,67.94-76.63Z"/><path class="cls-1" d="M175.38,421.08l10.23-10.23a135,135,0,0,1-29.24-39.46L135,387.71c11.15,30,33.95,55.7,67.94,76.63C184,441.3,175.38,421.08,175.38,421.08Z"/><path class="cls-1" d="M308.5,481.31a158.56,158.56,0,0,1-72.74-17.42,161.86,161.86,0,0,1-52.07-42.3l25.84-25.84a133.74,133.74,0,0,0,197.94,0l25.84,25.84a161.86,161.86,0,0,1-52.07,42.3A158.53,158.53,0,0,1,308.5,481.31Z"/><path d="M225.18,425.67,217,418.76l-4.31,5.08,7.37,6.26-2.6,3.07-7.38-6.26-5.21,6.15-3.57-3,14.73-17.37,11.73,10Z"/><path d="M227.85,449.34l-4-2.4,11.72-19.51,4,2.4Z"/><path d="M247.07,459.3l-7-3,8.91-21,7,3c8,3.41,11.18,8.45,8.16,15.55C261.2,460.83,255.24,462.78,247.07,459.3ZM254.38,442l-2.65-1.12L246,454.4l2.64,1.13c5.44,2.31,9.14,1.19,11.12-3.45S259.81,444.35,254.38,442Z"/><path d="M291.49,452.6l-10.48-2-1,5.16,9.43,1.77-.71,3.76-9.43-1.77-1,5.57,10.73,2-.75,4-15.34-2.88,4.21-22.38,15.08,2.84Z"/><path d="M306.48,468.13l10.95,0,0,4.09-15.65.05-.07-22.77,4.69,0Z"/><path d="M334.46,470.05l-4.6.72-3.49-22.5,4.6-.72Z"/><path d="M360.33,443.46,352.76,446l5.93,17.78-4.41,1.47-5.94-17.77L340.8,450l-1.28-3.81,19.53-6.53Z"/><path d="M381.79,432l-9.35,5.11,2.52,4.61,8.42-4.61,1.84,3.36-8.43,4.61,2.72,5,9.59-5.24,1.94,3.56-13.69,7.49-10.92-20,13.46-7.36Z"/><path d="M412.7,432.61l-8.47-3.15c-.23.23-.49.44-.74.65l-2.37,2,5,6-3.61,3L388,423.5l6-4.94c5.14-4.25,9.34-4.5,12.43-.76a6.81,6.81,0,0,1,.8,8.07L417,429.1Zm-16.16-11-2.42,2,4.69,5.68,2.37-2c2.82-2.33,3.2-4.52,1.75-6.28S399.37,419.26,396.54,421.6Z"/><path class="cls-1" d="M308.13,418.25l-.36-.09c-.68-.17-16.85-4.31-41.36-16.33l-1.55-.75c-33.68-16.09-59.57-39.72-77-70.24-14.87-26.09-16.23-49.9-16.28-50.9V131.13l1.58-.85c.69-.38,70.5-37.71,135.3-37.82,64.83.11,134.63,37.44,135.32,37.82l1.58.85V279.94c-.05,1-1.41,24.81-16.28,50.9-17.38,30.52-43.27,54.15-77,70.24-.6.29-1.13.53-1.56.75-24.56,12-40.67,16.16-41.35,16.33l-.36.09ZM198,269.32c-.77,33.35,15.3,62.83,47.75,87.69,31.51,24.15,57.61,31.52,62.74,32.8,4.41-1.08,30.67-8.22,62.76-32.8,32.45-24.86,48.52-54.34,47.77-87.62V149.75c-8.82-4.93-56.4-30-110.51-30.19v0c-54.12.18-101.68,25.26-110.5,30.19Z"/><path d="M308.5,95.46c64.81.11,133.89,37.46,133.89,37.46V279.78s-1.21,23.81-15.9,49.58C399.35,377,357.75,395,349.27,399.13c-24.21,11.88-40.26,16-40.76,16.12h0c-.5-.12-16.56-4.24-40.77-16.12-8.48-4.15-50.07-22.12-77.22-69.77-14.69-25.77-15.9-49.58-15.9-49.58V132.92S243.7,95.57,308.5,95.46m0,297.43h0c.88-.19,29.49-6.62,64.56-33.49,37.33-28.59,49.62-60.25,48.94-90.07V148s-52.21-31.23-113.5-31.45h0C247.19,116.77,195,148,195,148V269.32c-.69,29.82,11.6,61.48,48.93,90.07,35.07,26.88,63.69,33.3,64.56,33.5m0-303.43h0c-34.35.06-69.7,10.44-93.31,19.14a364.74,364.74,0,0,0-43.42,19l-3.15,1.7V280.09c0,1,1.46,25.54,16.67,52.24a170.72,170.72,0,0,0,44.85,51.24,183.5,183.5,0,0,0,33.42,20.22l1.53.73c24.87,12.2,41.26,16.38,42,16.55l.72.18h1.48l.73-.18c.68-.17,17-4.34,41.94-16.55l1.53-.74a182.58,182.58,0,0,0,33.42-20.21,170.57,170.57,0,0,0,44.85-51.24c15.21-26.7,16.62-51.21,16.67-52.24V129.34l-3.15-1.7a364.74,364.74,0,0,0-43.42-19c-23.6-8.7-58.95-19.08-93.31-19.14ZM201,151.52c11.66-6.32,56.69-28.79,107.51-29,50.79.18,95.83,22.64,107.5,29V269.46c.73,32.27-14.95,60.93-46.6,85.17-26.05,20-50.45,29.48-60.9,32.09-6.31-1.66-31.09-9.21-60.94-32.09-31.66-24.25-47.33-52.9-46.58-85.17V151.52Z"/><path d="M373.07,359.39c-35.07,26.87-63.68,33.3-64.56,33.49h0c-.87-.2-29.49-6.62-64.56-33.5C206.6,330.8,194.3,299.14,195,269.32V148s52.19-31.24,113.49-31.45h0C369.79,116.78,422,148,422,148V269.32C422.69,299.14,410.39,330.8,373.07,359.39Z"/><path d="M307.74,392.88h0Z"/><path class="cls-1" d="M401,218.79a190.8,190.8,0,0,0-31.69,15.29c-9,5.57-17.3,12.33-21,19.69-9.7,19.22,5.78,25.87,5.78,25.87s-1.61-6.14.12-10.19c2.53-5.94,11.13-12,19.78-6,11.05,7.61,1.44,26.27-6.2,37.23-15.88,22.76-47.37,35.61-47.37,35.61v-121l43.24-18H319.88V180.89a25.18,25.18,0,1,0-22.76,0v16.32H253.33l43.24,18v121s-31.49-12.85-47.37-35.61c-7.64-11-17.25-29.62-6.2-37.23,8.65-5.95,17.25.09,19.78,6,1.73,4.05.12,10.19.12,10.19s15.48-6.65,5.78-25.87c-3.71-7.36-12-14.12-21-19.69A190.8,190.8,0,0,0,216,218.79s-1.11,52.56,2.19,67.3c8,35.46,40.57,57.05,48.46,62.05a213.46,213.46,0,0,0,41.87,20.39,213.46,213.46,0,0,0,41.87-20.39c7.89-5,40.5-26.59,48.46-62.05C402.13,271.35,401,218.79,401,218.79ZM308.5,169.87a11.44,11.44,0,1,1,11.44-11.44A11.44,11.44,0,0,1,308.5,169.87Z"/><path class="cls-1" d="M489.39,385.5h0A144.18,144.18,0,0,1,486,408.4c12.65-16.08,21.31-34,27-56l-6.81,2.51-7.66,2.82-.71-8.13a70.35,70.35,0,0,0-4.36-17.49c-3.43,15.23-10.77,29.7-19.29,41.88Z"/><path class="cls-1" d="M127.61,385.5h0l15.15-11.56c-8.52-12.18-15.86-26.65-19.29-41.88a70.35,70.35,0,0,0-4.36,17.49l-.71,8.13-7.66-2.82-6.81-2.51c5.73,22,14.39,40,27,56A144.18,144.18,0,0,1,127.61,385.5Z"/></svg>